<svg width="31" height="28" viewBox="0 0 31 28" fill="none" xmlns="http://www.w3.org/2000/svg">
<path d="M18.5248 27.3855C19.4182 27.3855 20.2749 27.0262 20.9066 26.3866C21.5382 25.7469 21.8931 24.8794 21.8931 23.9748C21.8931 23.0703 21.5382 22.2027 20.9066 21.5631C20.2749 20.9235 19.4182 20.5641 18.5248 20.5641C17.6315 20.5641 16.7748 20.9235 16.1431 21.5631C15.5114 22.2027 15.1565 23.0703 15.1565 23.9748C15.1565 24.8794 15.5114 25.7469 16.1431 26.3866C16.7748 27.0262 17.6315 27.3855 18.5248 27.3855ZM6.73584 27.3855C7.62916 27.3855 8.4859 27.0262 9.11757 26.3866C9.74925 25.7469 10.1041 24.8794 10.1041 23.9748C10.1041 23.0703 9.74925 22.2027 9.11757 21.5631C8.4859 20.9235 7.62916 20.5641 6.73584 20.5641C5.84252 20.5641 4.98578 20.9235 4.3541 21.5631C3.72243 22.2027 3.36756 23.0703 3.36756 23.9748C3.36756 24.8794 3.72243 25.7469 4.3541 26.3866C4.98578 27.0262 5.84252 27.3855 6.73584 27.3855ZM28.6937 3.37925C29.1141 3.36552 29.5128 3.18675 29.8054 2.88075C30.098 2.57474 30.2616 2.1655 30.2616 1.73955C30.2616 1.31361 30.098 0.904363 29.8054 0.598359C29.5128 0.292355 29.1141 0.113585 28.6937 0.0998535H26.7552C25.2361 0.0998535 23.9225 1.16741 23.5924 2.66812L21.4822 12.2897C21.1521 13.7904 19.8385 14.858 18.3194 14.858H5.66809L3.23956 5.0181H18.9779C19.3943 4.99886 19.7875 4.81779 20.0754 4.51255C20.3634 4.20731 20.5242 3.80141 20.5242 3.37925C20.5242 2.9571 20.3634 2.55119 20.0754 2.24595C19.7875 1.94072 19.3943 1.75965 18.9779 1.74041H3.23956C2.74723 1.74026 2.26134 1.85377 1.81884 2.07233C1.37634 2.29088 0.988874 2.60871 0.685894 3.00166C0.382912 3.39461 0.172392 3.85234 0.0703411 4.34004C-0.0317116 4.82775 -0.0226078 5.3326 0.0969543 5.81621L2.52549 15.6527C2.70056 16.3625 3.10498 16.9926 3.67442 17.4428C4.24386 17.893 4.94563 18.1375 5.66809 18.1374H18.3194C19.7933 18.1376 21.2233 17.6287 22.3731 16.6948C23.5229 15.7609 24.3237 14.4579 24.6433 13.0009L26.7552 3.37925H28.6937Z" fill="black"/>
</svg>
