<svg width="20" height="22" viewBox="0 0 20 22" fill="none" xmlns="http://www.w3.org/2000/svg">
<g clip-path="url(#clip0)">
<path d="M19.6114 17.0987L17.3942 15.6018L15.4232 14.2714C15.0428 14.0152 14.5316 14.0992 14.2508 14.4642L13.0312 16.0519C12.7692 16.3964 12.2979 16.4954 11.9222 16.2847C11.0946 15.8186 10.116 15.3797 7.95674 13.1904C5.79747 11.0012 5.36126 10.013 4.90092 9.17502C4.69291 8.79459 4.79068 8.31737 5.13091 8.05212L6.69882 6.81712C7.05925 6.53281 7.14226 6.01516 6.88917 5.62995L5.61575 3.69555L4.09714 1.38892C3.83866 0.996305 3.32125 0.878433 2.92164 1.1211L1.17026 2.18502C0.696941 2.4674 0.349015 2.92338 0.198548 3.45843C-0.280392 5.22661 -0.376953 9.12716 5.79641 15.3783C11.9698 21.6294 15.8215 21.5313 17.5676 21.0463C18.096 20.894 18.5463 20.5417 18.8252 20.0624L19.8759 18.289C20.1156 17.8843 19.9992 17.3604 19.6114 17.0987Z" fill="white"/>
<path d="M11.379 4.13754C14.615 4.14118 17.2374 6.7966 17.241 10.0734C17.241 10.2662 17.3954 10.4226 17.5859 10.4226C17.7763 10.4226 17.9307 10.2662 17.9307 10.0734C17.9267 6.4111 14.9958 3.44324 11.379 3.43921C11.1886 3.43921 11.0342 3.59553 11.0342 3.78839C11.0342 3.98118 11.1885 4.13754 11.379 4.13754Z" fill="white"/>
<path d="M11.379 6.23255C13.4728 6.23504 15.1696 7.95319 15.172 10.0734C15.172 10.2662 15.3264 10.4226 15.5169 10.4226C15.7073 10.4226 15.8617 10.2662 15.8617 10.0734C15.8589 7.56766 13.8536 5.53707 11.379 5.53418C11.1886 5.53418 11.0341 5.6905 11.0341 5.88336C11.0341 6.07623 11.1885 6.23255 11.379 6.23255Z" fill="white"/>
<path d="M11.379 8.32748C12.3308 8.32862 13.102 9.10958 13.1031 10.0733C13.1031 10.2661 13.2575 10.4225 13.448 10.4225C13.6384 10.4225 13.7928 10.2662 13.7928 10.0733C13.7913 8.72409 12.7115 7.63069 11.3791 7.62915C11.1886 7.62915 11.0342 7.78547 11.0342 7.97833C11.0342 8.17116 11.1885 8.32748 11.379 8.32748Z" fill="white"/>
</g>
<defs>
<clipPath id="clip0">
<rect width="20" height="20.2519" fill="white" transform="translate(-0.00012207 0.995117)"/>
</clipPath>
</defs>
</svg>
