<svg width="54" height="54" viewBox="0 0 54 54" fill="none" xmlns="http://www.w3.org/2000/svg">
<path d="M53.2499 11.8057L27.9486 31.4296C27.6674 31.6413 27.3337 31.7463 27 31.7463C26.6663 31.7463 26.3326 31.6413 26.0514 31.4296L0.750094 11.8057C0.280969 12.5414 0 13.4085 0 14.344V39.6565C0 42.2736 2.12899 44.4026 4.74609 44.4026H49.2539C51.871 44.4026 54 42.2736 54 39.6565V14.344C54 13.4085 53.719 12.5414 53.2499 11.8057Z" fill="#FFB229"/>
<path d="M49.2539 9.5979H4.74609C4.25904 9.5979 3.79824 9.69293 3.35559 9.82983L27 28.1868L50.6444 9.82983C50.2017 9.69293 49.741 9.5979 49.2539 9.5979Z" fill="#FFB229"/>
</svg>
