<svg width="56" height="56" viewBox="0 0 56 56" fill="none" xmlns="http://www.w3.org/2000/svg">
<g clip-path="url(#clip0)">
<path d="M54.9115 44.529L48.7034 40.3899L43.1845 36.7113C42.1194 36.0027 40.688 36.235 39.9017 37.2443L36.4868 41.6344C35.7532 42.5871 34.4336 42.8608 33.3816 42.2784C31.0644 40.9894 28.3243 39.7758 22.2783 33.7221C16.2324 27.6684 15.011 24.936 13.722 22.6188C13.1396 21.5669 13.4134 20.2473 14.366 19.5138L18.7562 16.0988C19.7654 15.3127 19.9978 13.8813 19.2892 12.8161L15.7236 7.46717L11.4714 1.08893C10.7477 0.00328348 9.29895 -0.32265 8.18006 0.348357L3.27618 3.29029C1.9509 4.07111 0.976705 5.33197 0.555397 6.81147C-0.785634 11.7008 -1.05601 22.4865 16.2294 39.7719C33.5148 57.0573 44.2995 56.7861 49.1889 55.4449C50.6684 55.0237 51.9292 54.0495 52.71 52.7242L55.652 47.8204C56.3231 46.7014 55.9972 45.2527 54.9115 44.529Z" fill="#FFB229"/>
<path d="M31.8617 8.68978C40.9225 8.69984 48.2653 16.0425 48.2753 25.1034C48.2753 25.6366 48.7076 26.0689 49.2409 26.0689C49.7741 26.0689 50.2064 25.6367 50.2064 25.1034C50.1953 14.9766 41.9886 6.76995 31.8619 6.75879C31.3287 6.75879 30.8963 7.19103 30.8963 7.72434C30.8962 8.25743 31.3284 8.68978 31.8617 8.68978Z" fill="#FFB229"/>
<path d="M31.8614 14.4824C37.7241 14.4893 42.475 19.2402 42.4819 25.1029C42.4819 25.6361 42.9141 26.0684 43.4474 26.0684C43.9806 26.0684 44.413 25.6362 44.413 25.1029C44.405 18.1742 38.7902 12.5593 31.8614 12.5513C31.3282 12.5513 30.8958 12.9835 30.8958 13.5168C30.8958 14.0501 31.3281 14.4824 31.8614 14.4824Z" fill="#FFB229"/>
<path d="M31.8617 20.2747C34.5266 20.2779 36.6861 22.4374 36.6893 25.1023C36.6893 25.6355 37.1215 26.0678 37.6548 26.0678C38.188 26.0678 38.6204 25.6356 38.6204 25.1023C38.6161 21.3714 35.5927 18.348 31.8619 18.3438C31.3287 18.3438 30.8963 18.776 30.8963 19.3093C30.8962 19.8425 31.3284 20.2747 31.8617 20.2747Z" fill="#FFB229"/>
</g>
<defs>
<clipPath id="clip0">
<rect width="56" height="56" fill="white"/>
</clipPath>
</defs>
</svg>
