<svg width="46" height="65" viewBox="0 0 46 65" fill="none" xmlns="http://www.w3.org/2000/svg">
<path d="M22.5688 0C10.1246 0 0 9.71991 0 21.6667C0 25.2531 0.934002 28.8091 2.70957 31.9631L21.3346 64.3018C21.5826 64.7329 22.0551 65 22.5688 65C23.0825 65 23.555 64.7329 23.803 64.3018L42.4349 31.9524C44.2036 28.8091 45.1376 25.253 45.1376 21.6666C45.1376 9.71991 35.013 0 22.5688 0ZM22.5688 32.5C16.3467 32.5 11.2845 27.6401 11.2845 21.6667C11.2845 15.6933 16.3467 10.8334 22.5688 10.8334C28.7909 10.8334 33.8531 15.6933 33.8531 21.6667C33.8531 27.6401 28.7909 32.5 22.5688 32.5Z" fill="#FFB229"/>
</svg>
