<svg width="14" height="21" viewBox="0 0 14 21" fill="none" xmlns="http://www.w3.org/2000/svg">
<path d="M6.70062 0.389893C3.0059 0.389893 -0.00012207 3.43378 -0.00012207 7.17504C-0.00012207 8.29817 0.277186 9.41175 0.804359 10.3995L6.33419 20.5266C6.40781 20.6617 6.54809 20.7453 6.70062 20.7453C6.85316 20.7453 6.99344 20.6617 7.06706 20.5266L12.5989 10.3961C13.1241 9.41175 13.4014 8.29813 13.4014 7.175C13.4014 3.43378 10.3953 0.389893 6.70062 0.389893ZM6.70062 10.5676C4.85326 10.5676 3.35027 9.04568 3.35027 7.17504C3.35027 5.30441 4.85326 3.78249 6.70062 3.78249C8.54799 3.78249 10.051 5.30441 10.051 7.17504C10.051 9.04568 8.54799 10.5676 6.70062 10.5676Z" fill="#FFB229"/>
</svg>
