<svg width="24" height="25" viewBox="0 0 24 25" fill="none" xmlns="http://www.w3.org/2000/svg">
<path d="M22.93 0.257324H0.955416C0.426952 0.257324 0 0.689654 0 1.22478V23.4762C0 24.0113 0.426952 24.4436 0.955416 24.4436H22.93C23.4585 24.4436 23.8854 24.0113 23.8854 23.4762V1.22478C23.8854 0.689654 23.4585 0.257324 22.93 0.257324ZM20.1712 7.31669H18.2634C16.7676 7.31669 16.4779 8.03624 16.4779 9.09439V11.4253H20.0488L19.5831 15.0744H16.4779V24.4436H12.7548V15.0775H9.64075V11.4253H12.7548V8.73462C12.7548 5.61156 14.6388 3.90945 17.3916 3.90945C18.7112 3.90945 19.8428 4.00922 20.1742 4.05457V7.31669H20.1712Z" fill="#FFB229"/>
</svg>
