<svg width="21" height="22" viewBox="0 0 21 22" fill="none" xmlns="http://www.w3.org/2000/svg">
<path d="M20.7083 4.78613L10.8689 12.4177C10.7595 12.5 10.6298 12.5408 10.5 12.5408C10.3702 12.5408 10.2405 12.5 10.1311 12.4177L0.291703 4.78613C0.109266 5.07226 0 5.40945 0 5.77326V15.617C0 16.6348 0.827941 17.4627 1.8457 17.4627H19.1543C20.1721 17.4627 21 16.6348 21 15.617V5.77326C21 5.40945 20.8907 5.07226 20.7083 4.78613Z" fill="#FFB229"/>
<path d="M19.1543 3.92773H1.84568C1.65627 3.92773 1.47707 3.96469 1.30493 4.01793L10.5 11.1567L19.695 4.01793C19.5229 3.96469 19.3437 3.92773 19.1543 3.92773Z" fill="#FFB229"/>
</svg>
