<svg width="14" height="20" viewBox="0 0 14 20" fill="none" xmlns="http://www.w3.org/2000/svg">
<path d="M6.70075 0.505859C3.00603 0.505859 0 3.39173 0 6.93877C0 8.00359 0.277308 9.05937 0.804481 9.99581L6.33431 19.5973C6.40793 19.7253 6.54821 19.8046 6.70075 19.8046C6.85328 19.8046 6.99356 19.7253 7.06718 19.5973L12.5991 9.99264C13.1242 9.05937 13.4015 8.00356 13.4015 6.93874C13.4015 3.39173 10.3955 0.505859 6.70075 0.505859ZM6.70075 10.1552C4.85339 10.1552 3.35039 8.71229 3.35039 6.93877C3.35039 5.16525 4.85339 3.72234 6.70075 3.72234C8.54811 3.72234 10.0511 5.16525 10.0511 6.93877C10.0511 8.71229 8.54811 10.1552 6.70075 10.1552Z" fill="#FFB229"/>
</svg>
