<svg width="25" height="25" viewBox="0 0 25 25" fill="none" xmlns="http://www.w3.org/2000/svg">
<path d="M12.0695 8.27394C9.85267 8.27394 8.04359 10.1058 8.04359 12.3505C8.04359 14.5953 9.85267 16.4271 12.0695 16.4271C14.2863 16.4271 16.0953 14.5953 16.0953 12.3505C16.0953 10.1058 14.2863 8.27394 12.0695 8.27394ZM24.1441 12.3505C24.1441 10.6624 24.1592 8.98956 24.0656 7.30449C23.9719 5.34724 23.531 3.61018 22.1176 2.17894C20.7011 0.744643 18.9887 0.301204 17.0558 0.206399C15.3886 0.111595 13.7366 0.126886 12.0725 0.126886C10.4054 0.126886 8.75333 0.111595 7.08922 0.206399C5.15632 0.301204 3.44086 0.747702 2.02743 2.17894C0.610971 3.61324 0.173048 5.34724 0.0794225 7.30449C-0.0142025 8.99262 0.00089833 10.6655 0.00089833 12.3505C0.00089833 14.0356 -0.0142025 15.7115 0.0794225 17.3966C0.173048 19.3538 0.613991 21.0909 2.02743 22.5221C3.44388 23.9564 5.15632 24.3999 7.08922 24.4947C8.75635 24.5895 10.4084 24.5742 12.0725 24.5742C13.7396 24.5742 15.3916 24.5895 17.0558 24.4947C18.9887 24.3999 20.7041 23.9534 22.1176 22.5221C23.534 21.0878 23.9719 19.3538 24.0656 17.3966C24.1622 15.7115 24.1441 14.0387 24.1441 12.3505ZM12.0695 18.6229C8.64158 18.6229 5.87512 15.8216 5.87512 12.3505C5.87512 8.87947 8.64158 6.07815 12.0695 6.07815C15.4974 6.07815 18.2638 8.87947 18.2638 12.3505C18.2638 15.8216 15.4974 18.6229 12.0695 18.6229ZM18.5175 7.28614C17.7172 7.28614 17.0709 6.63169 17.0709 5.82126C17.0709 5.01084 17.7172 4.35638 18.5175 4.35638C19.3179 4.35638 19.9642 5.01084 19.9642 5.82126C19.9644 6.0137 19.9272 6.2043 19.8545 6.38213C19.7819 6.55997 19.6754 6.72155 19.541 6.85763C19.4066 6.9937 19.247 7.1016 19.0714 7.17513C18.8958 7.24866 18.7076 7.28639 18.5175 7.28614Z" fill="#FFB229"/>
</svg>
