<svg width="23" height="24" viewBox="0 0 23 24" fill="none" xmlns="http://www.w3.org/2000/svg">
<g clip-path="url(#clip0)">
<path d="M22.6804 5.21753L11.9039 13.6812C11.7841 13.7725 11.642 13.8178 11.4999 13.8178C11.3577 13.8178 11.2156 13.7725 11.0958 13.6812L0.319362 5.21753C0.11955 5.53485 -0.00012207 5.90881 -0.00012207 6.31228V17.2293C-0.00012207 18.3581 0.906671 19.2763 2.02136 19.2763H20.9784C22.0931 19.2763 22.9999 18.3581 22.9999 17.2293V6.31228C22.9999 5.90881 22.8802 5.53485 22.6804 5.21753Z" fill="#FFB229"/>
<path d="M20.9784 4.26538H2.02139C1.81394 4.26538 1.61768 4.30637 1.42914 4.36541L11.4999 12.2826L21.5707 4.36541C21.3821 4.30637 21.1859 4.26538 20.9784 4.26538Z" fill="#FFB229"/>
</g>
<defs>
<clipPath id="clip0">
<rect width="23" height="23.2897" fill="white" transform="translate(-0.00012207 0.125977)"/>
</clipPath>
</defs>
</svg>
