<svg width="22" height="23" viewBox="0 0 22 23" fill="none" xmlns="http://www.w3.org/2000/svg">
<g clip-path="url(#clip0)">
<path d="M9.63213 0.182617C4.37547 0.182617 0.0985718 4.51339 0.0985718 9.83626C0.0985718 15.1594 4.37547 19.4899 9.63213 19.4899C14.8891 19.4899 19.1657 15.1594 19.1657 9.83626C19.1657 4.51339 14.8891 0.182617 9.63213 0.182617ZM9.63213 17.7077C5.34584 17.7077 1.85861 14.1766 1.85861 9.8363C1.85861 5.49603 5.34584 1.96483 9.63213 1.96483C13.9184 1.96483 17.4056 5.49599 17.4056 9.83626C17.4056 14.1765 13.9184 17.7077 9.63213 17.7077Z" fill="#FFB229"/>
<path d="M21.4892 20.5823L16.4437 15.4733C16.0999 15.1251 15.5432 15.1251 15.1994 15.4733C14.8556 15.8211 14.8556 16.3855 15.1994 16.7333L20.2448 21.8423C20.4167 22.0164 20.6417 22.1034 20.867 22.1034C21.092 22.1034 21.3173 22.0164 21.4892 21.8423C21.833 21.4945 21.833 20.9301 21.4892 20.5823Z" fill="#FFB229"/>
</g>
<defs>
<clipPath id="clip0">
<rect width="21.6485" height="21.9212" fill="white" transform="translate(0.0985718 0.182617)"/>
</clipPath>
</defs>
</svg>
