<svg width="63" height="63" viewBox="0 0 63 63" fill="none" xmlns="http://www.w3.org/2000/svg">
<g clip-path="url(#clip0)">
<path d="M61.1657 0.287109H43.254C42.6345 0.287109 42.1322 0.789407 42.1322 1.40892C42.1322 2.02844 42.6345 2.53074 43.254 2.53074H48.1866V12.2385H26.4805V2.53074H39.5145C40.1341 2.53074 40.6364 2.02844 40.6364 1.40892C40.6364 0.789407 40.1342 0.287109 39.5147 0.287109H1.40917C0.789651 0.287109 0.287354 0.789407 0.287354 1.40892V13.3603V25.3115V37.2628V49.2142V61.1654C0.287354 61.7849 0.789651 62.2872 1.40917 62.2872H61.1655C61.7851 62.2872 62.2874 61.7849 62.2874 61.1654V1.40892C62.2875 0.789407 61.7852 0.287109 61.1657 0.287109ZM38.3377 14.4821H60.0436V24.1897H45.4976C44.878 24.1897 44.3757 24.692 44.3757 25.3115C44.3757 25.9311 44.878 26.4334 45.4976 26.4334H48.1866V36.141H26.4805V26.4334H41.758C42.3776 26.4334 42.8799 25.9311 42.8799 25.3115C42.8799 24.692 42.3776 24.1897 41.758 24.1897H38.3377V14.4821ZM60.0437 38.3845V48.0922H38.3377V38.3845H60.0437ZM36.0941 14.4821V24.1897H14.3883V14.4821H36.0941ZM2.53098 2.53074H24.2368V12.2385H2.53098V2.53074ZM2.53098 14.4821H12.1446V24.1897H2.53098V14.4821ZM2.53098 26.4335H24.2368V36.1411H2.53098V26.4335ZM2.53098 38.3845H12.1446V48.0922H2.53098V38.3845ZM24.2368 60.0435H2.53098V50.3359H18.7235C19.3431 50.3359 19.8454 49.8336 19.8454 49.214C19.8454 48.5945 19.3431 48.0922 18.7235 48.0922H14.3883V38.3845H36.0941V48.0922H22.4629C21.8434 48.0922 21.3411 48.5945 21.3411 49.214C21.3411 49.8336 21.8434 50.3359 22.4629 50.3359H24.2368V60.0435ZM48.1866 60.0435H26.4805V50.3359H48.1866V60.0435ZM60.0438 60.0436H50.4302V50.336H60.0438V60.0436ZM60.0438 36.1409H50.4302V26.4332H60.0438V36.1409ZM60.0438 12.2385H50.4302V2.53074H60.0438V12.2385Z" fill="white"/>
</g>
<defs>
<clipPath id="clip0">
<rect width="62" height="62" fill="white" transform="translate(0.287354 0.287109)"/>
</clipPath>
</defs>
</svg>
