<svg width="36" height="38" viewBox="0 0 36 38" fill="none" xmlns="http://www.w3.org/2000/svg">
<path fill-rule="evenodd" clip-rule="evenodd" d="M36 19.1213C36 29.1876 27.9411 37.348 18 37.348C8.0589 37.348 0 29.1876 0 19.1213C0 9.05494 8.0589 0.894531 18 0.894531C27.9411 0.894531 36 9.05494 36 19.1213ZM12.0536 17.4516C10.2505 18.2488 8.39783 19.068 6.70369 20.0129C5.81908 20.6687 6.99478 21.1327 8.09783 21.5678C8.27318 21.637 8.44665 21.7054 8.60978 21.7738C8.74553 21.8161 8.88353 21.8606 9.0234 21.9057C10.2502 22.3015 11.618 22.7428 12.809 22.0789C14.7655 20.9409 16.6118 19.6252 18.4567 18.3106C19.0611 17.8798 19.6654 17.4492 20.2733 17.025C20.3018 17.0065 20.3339 16.9854 20.3691 16.9624C20.887 16.6224 22.0518 15.8578 21.6209 16.9114C20.6021 18.0396 19.5108 19.0383 18.4136 20.0425C17.6741 20.7192 16.9319 21.3985 16.2074 22.1215C15.5765 22.6406 14.9212 23.6846 15.6278 24.4117C17.2552 25.5653 18.908 26.6909 20.5599 27.816C21.0974 28.182 21.635 28.5481 22.1714 28.915C23.0805 29.65 24.5014 29.0554 24.7013 27.9069C24.7901 27.3786 24.8794 26.8503 24.9686 26.322C25.4618 23.4021 25.9552 20.4812 26.391 17.5519C26.4503 17.0923 26.5174 16.6329 26.5846 16.1732C26.7474 15.059 26.9105 13.9434 26.9614 12.8232C26.8301 11.7053 25.4915 11.9512 24.7466 12.2025C20.9177 13.6779 17.1271 15.2625 13.3514 16.8751C12.9237 17.067 12.4901 17.2586 12.0536 17.4516Z" fill="#FFB229"/>
</svg>
