<svg width="37" height="37" viewBox="0 0 37 37" fill="none" xmlns="http://www.w3.org/2000/svg">
<path fill-rule="evenodd" clip-rule="evenodd" d="M18.5753 36.6295C8.63419 36.6295 0.575317 28.4691 0.575317 18.4028C0.575317 8.33641 8.63419 0.176025 18.5753 0.176025C28.5164 0.176025 36.5753 8.33641 36.5753 18.4028C36.5753 28.4691 28.5164 36.6295 18.5753 36.6295ZM19.1686 28.5433C25.0699 28.5409 29.8696 23.6796 29.8719 17.7052C29.8731 14.8093 28.7608 12.0863 26.74 10.0378C24.7192 7.98912 22.0318 6.86041 19.1685 6.85916C13.2689 6.85916 8.4674 11.7209 8.46505 17.6967C8.46425 19.6069 8.95712 21.4713 9.89378 23.115L8.37532 28.7312L14.0493 27.2241C15.6127 28.0876 17.3728 28.5427 19.1642 28.5433H19.1686Z" fill="#FFB229"/>
<path fill-rule="evenodd" clip-rule="evenodd" d="M14.3122 25.262L10.9452 26.1564L11.8439 22.8322L11.6324 22.4913C10.7419 21.0571 10.2715 19.3994 10.2722 17.6973C10.2742 12.7305 14.265 8.68975 19.1721 8.68975C21.5483 8.69058 23.782 9.62877 25.4616 11.3315C27.1412 13.0343 28.0657 15.2975 28.0647 17.7046C28.0628 22.6717 24.072 26.7129 19.1686 26.7129H19.165C17.5687 26.7122 16.003 26.278 14.6371 25.4572L14.3122 25.262ZM24.5609 20.2825C24.4941 20.1695 24.3158 20.1017 24.0484 19.9661C23.7809 19.8306 22.4661 19.1755 22.2209 19.0851C21.9758 18.9947 21.7974 18.9496 21.6192 19.2206C21.4409 19.4917 20.9284 20.1017 20.7724 20.2825C20.6163 20.4632 20.4603 20.4858 20.193 20.3502C19.9255 20.2147 19.0638 19.9288 18.0423 19.0061C17.2472 18.288 16.7105 17.4012 16.5545 17.1301C16.3985 16.859 16.5378 16.7125 16.6717 16.5774C16.792 16.456 16.9392 16.2611 17.0729 16.103C17.2066 15.9449 17.2512 15.8318 17.3403 15.6512C17.4295 15.4704 17.3849 15.3123 17.318 15.1768C17.2512 15.0412 16.7163 13.7082 16.4935 13.166C16.2764 12.6379 16.0559 12.7095 15.8917 12.7011C15.7359 12.6932 15.5574 12.6915 15.3792 12.6915C15.2009 12.6915 14.9111 12.7593 14.666 13.0304C14.4208 13.3015 13.73 13.9567 13.73 15.2896C13.73 16.6226 14.6883 17.9103 14.822 18.091C14.9557 18.2718 16.7078 21.0071 19.3907 22.1801C20.0287 22.4592 20.5268 22.6258 20.9153 22.7506C21.5559 22.9568 22.139 22.9277 22.5997 22.8579C23.1136 22.7802 24.182 22.2028 24.405 21.5703C24.6277 20.9376 24.6277 20.3954 24.5609 20.2825Z" fill="#FFB229"/>
</svg>
